# xmcd
#
# Track frame offsets:
#	183
#	12313
#	26000
#	43608
#	57670
#	73285
#	85283
#	96875
#	108933
#	122100
#	137958
#	149500
#
# Disc length: 2212 seconds
#
# Revision: 0
# Processed by: cddbd v1.5.1PL0 Copyright (c) Steve Scherf et al.
# Submitted via: EasyCDDAExtractor 7.1.3.1
#
DISCID=b508a20c
DTITLE=Gary Lumpkin and Connie Lee Stich - Mississippi Memory
DYEAR=1992
DGENRE=Country
TTITLE0=Let's Hate Ourselves In The Morning
TTITLE1=There Ain't No Me (If There Ain't No You)
TTITLE2=Love Letters In The Sand
TTITLE3=San Antonio Days
TTITLE4=Yoedelin Blues
TTITLE5=Building A Bridge
TTITLE6=I Only Want To Love You Forever
TTITLE7=Mississippi Memory
TTITLE8=Heavan On My Porch
TTITLE9=Old Faithfull
TTITLE10=I Can Count On You
TTITLE11=Life's Railroad To Heaven
EXTD=
EXTT0=
EXTT1=
EXTT2=
EXTT3=
EXTT4=
EXTT5=
EXTT6=
EXTT7=
EXTT8=
EXTT9=
EXTT10=
EXTT11=
PLAYORDER=
